HIERARCHY
ROOT Hips
{
	OFFSET -0.001795 -0.223333 0.028219
	CHANNELS 6 Xposition Yposition Zposition Zrotation Yrotation Xrotation 
	JOINT LeftUpLeg
	{
		OFFSET 0.069520 -0.091406 -0.006815
		CHANNELS 3 Zrotation Yrotation Xrotation
		JOINT LeftLeg
		{
			OFFSET 0.034277 -0.375199 -0.004496
			CHANNELS 3 Zrotation Yrotation Xrotation
			JOINT LeftFoot
			{
				OFFSET -0.013596 -0.397961 -0.043693
				CHANNELS 3 Zrotation Yrotation Xrotation
				JOINT LeftToe
				{
					OFFSET 0.026358 -0.055791 0.119288
					CHANNELS 3 Zrotation Yrotation Xrotation
					End Site
					{
						OFFSET 0.000000 0.000000 0.000000
					}
				}
			}
		}
	}
	JOINT RightUpLeg
	{
		OFFSET -0.067670 -0.090522 -0.004320
		CHANNELS 3 Zrotation Yrotation Xrotation
		JOINT RightLeg
		{
			OFFSET -0.038290 -0.382569 -0.008850
			CHANNELS 3 Zrotation Yrotation Xrotation
			JOINT RightFoot
			{
				OFFSET 0.015774 -0.398415 -0.042312
				CHANNELS 3 Zrotation Yrotation Xrotation
				JOINT RightToe
				{
					OFFSET -0.025372 -0.048144 0.123348
					CHANNELS 3 Zrotation Yrotation Xrotation
					End Site
					{
						OFFSET 0.000000 0.000000 0.000000
					}
				}
			}
		}
	}
	JOINT Spine
	{
		OFFSET -0.002533 0.108963 -0.026696
		CHANNELS 3 Zrotation Yrotation Xrotation
		JOINT Spine1
		{
			OFFSET 0.005487 0.135180 0.001092
			CHANNELS 3 Zrotation Yrotation Xrotation
			JOINT Spine2
			{
				OFFSET 0.001457 0.052922 0.025425
				CHANNELS 3 Zrotation Yrotation Xrotation
				JOINT Neck
				{
					OFFSET -0.002778 0.213870 -0.042857
					CHANNELS 3 Zrotation Yrotation Xrotation
					JOINT Head
					{
						OFFSET 0.005152 0.064970 0.051349
						CHANNELS 3 Zrotation Yrotation Xrotation
						End Site
						{
							OFFSET 0.000000 0.000000 0.000000
						}
					}
				}
				JOINT LeftShoulder
				{
					OFFSET 0.078845 0.121749 -0.034090
					CHANNELS 3 Zrotation Yrotation Xrotation
					JOINT LeftArm
					{
						OFFSET 0.090977 0.030469 -0.008868
						CHANNELS 3 Zrotation Yrotation Xrotation
						JOINT LeftForeArm
						{
							OFFSET 0.259612 -0.012772 -0.027456
							CHANNELS 3 Zrotation Yrotation Xrotation
							JOINT LeftHand
							{
								OFFSET 0.249234 0.008986 -0.001171
								CHANNELS 3 Zrotation Yrotation Xrotation
								End Site
								{
									OFFSET 0.000000 0.000000 0.000000
								}
							}
						}
					}
				}
				JOINT RightShoulder
				{
					OFFSET -0.081759 0.118833 -0.038615
					CHANNELS 3 Zrotation Yrotation Xrotation
					JOINT RightArm
					{
						OFFSET -0.096012 0.032551 -0.009143
						CHANNELS 3 Zrotation Yrotation Xrotation
						JOINT RightForeArm
						{
							OFFSET -0.253742 -0.013329 -0.021401
							CHANNELS 3 Zrotation Yrotation Xrotation
							JOINT RightHand
							{
								OFFSET -0.255298 0.007772 -0.005559
								CHANNELS 3 Zrotation Yrotation Xrotation
								End Site
								{
									OFFSET 0.000000 0.000000 0.000000
								}
							}
						}
					}
				}
			}
		}
	}
}
MOTION
Frames: 17
Frame Time: 0.050000
0.000000 0.940390 0.000000 3.104564 -7.529865 7.313842 -0.515051 -0.847719 -9.112641 -0.214880 0.100860 -2.421414 -0.098170 6.494221 24.675182 0.000000 0.000000 0.000000 -6.614219 0.748123 -8.307671 -5.480878 0.809541 3.290931 -3.012433 -11.421145 11.422870 0.000000 0.000000 0.000000 10.314565 -0.696111 3.148257 -2.512214 1.204605 0.237577 -0.751813 5.612939 5.110583 10.305283 -4.766589 -16.897106 0.000000 0.000000 0.000000 -19.039606 -27.067581 12.719982 -27.168229 -15.512034 -0.081442 -101.014009 -79.093581 94.040261 0.000000 0.000000 0.000000 12.571280 21.436360 9.576061 21.416877 13.755879 -0.269910 108.464127 76.160514 98.936018 0.000000 0.000000 0.000000 
0.002517 0.939846 -0.001208 3.395404 -6.988093 8.045115 -0.844372 -0.888971 -9.354301 -0.413237 0.163122 -3.763161 -0.460495 6.160663 24.822147 0.000000 0.000000 0.000000 -6.582139 0.758211 -8.432593 -6.347588 0.802466 2.129914 -3.248551 -11.897587 11.841607 0.000000 0.000000 0.000000 10.469761 -0.828901 3.841442 -2.056980 0.972939 -0.406036 -2.060141 7.800509 3.793129 15.027027 -7.056978 -17.960194 0.000000 0.000000 0.000000 -20.899722 -27.577917 12.397241 -24.524209 -17.901950 0.549275 -104.809296 -78.755033 96.736211 0.000000 0.000000 0.000000 13.210691 19.817713 9.526879 19.933359 12.861791 -0.557718 109.201911 71.782797 96.251596 0.000000 0.000000 0.000000 
0.004468 0.940033 -0.003937 3.689407 -5.613229 8.347882 -1.063238 -1.028782 -10.715473 -0.674265 0.148538 -2.541910 -1.151983 5.511693 24.777648 0.000000 0.000000 0.000000 -6.446001 0.757803 -8.757015 -7.116600 0.932670 2.408465 -3.878400 -13.009106 12.399573 0.000000 0.000000 0.000000 10.889111 -0.916656 4.121846 -2.170720 1.013494 -1.037499 -2.142511 7.225416 4.840109 15.321717 -7.299581 -17.897642 0.000000 0.000000 0.000000 -18.654436 -28.335397 12.505152 -26.040840 -19.531495 0.843342 -101.145041 -82.526114 96.734859 0.000000 0.000000 0.000000 12.905247 22.761351 11.010165 18.603669 10.735644 -0.819557 106.993020 71.217967 93.016775 0.000000 0.000000 0.000000 
0.005937 0.939774 -0.007204 3.833147 -4.559919 9.691658 -0.932819 -1.176243 -12.437847 -1.182229 0.197764 -2.688015 -1.726864 5.030736 25.039424 0.000000 0.000000 0.000000 -7.025108 0.813418 -10.121823 -6.376790 0.842336 2.364721 -4.445366 -13.979868 12.799996 0.000000 0.000000 0.000000 11.397042 -0.905218 3.301917 -1.983294 0.935511 -0.030648 -2.721855 7.107258 4.160456 17.258055 -7.698541 -20.329271 0.000000 0.000000 0.000000 -18.836423 -29.121733 12.815735 -26.079296 -21.217179 1.239747 -82.437650 -85.262647 80.572018 0.000000 0.000000 0.000000 12.628671 23.351535 11.417162 16.137757 10.794637 -0.807733 104.074464 68.557140 87.106427 0.000000 0.000000 0.000000 
0.006931 0.939783 -0.010764 3.874346 -3.746885 9.944973 -1.307631 -1.285342 -13.238610 -0.621676 0.134395 -2.287622 -2.127523 4.664878 25.036869 0.000000 0.000000 0.000000 -6.975553 0.790882 -9.848294 -6.511257 0.763065 1.354787 -4.766459 -14.529950 13.302810 0.000000 0.000000 0.000000 11.502695 -1.022872 3.960171 -2.134668 1.000396 -0.203621 -2.499235 6.988238 4.842549 17.377895 -7.997242 -19.589123 0.000000 0.000000 0.000000 -18.010350 -30.592997 13.498106 -26.052507 -22.626966 1.444195 -19.580088 -87.277151 21.431014 0.000000 0.000000 0.000000 11.984519 25.075312 12.216889 14.818773 11.131488 -0.793937 100.414501 67.626738 82.219554 0.000000 0.000000 0.000000 
0.007876 0.940013 -0.014069 3.809824 -3.606478 10.348267 -1.332798 -1.357208 -13.983060 -0.489166 0.118158 -2.160685 -2.213727 4.636072 25.232254 0.000000 0.000000 0.000000 -7.273233 0.799303 -10.122441 -5.950665 0.642759 0.733104 -4.797459 -14.613869 13.636781 0.000000 0.000000 0.000000 11.715090 -1.185035 4.844779 -2.030150 0.955301 0.424256 -2.776757 7.481162 4.290021 18.341180 -8.144181 -20.729124 0.000000 0.000000 0.000000 -18.044559 -31.420726 13.785873 -26.123474 -23.053866 1.603532 7.919012 -86.069505 -4.885494 0.000000 0.000000 0.000000 11.629929 26.728089 13.143563 13.412311 12.734145 -0.696721 89.371613 68.164949 72.001473 0.000000 0.000000 0.000000 
0.008938 0.940158 -0.016575 3.879749 -3.292269 10.527409 -1.711429 -1.421773 -14.282877 -0.036117 0.081557 -2.318697 -2.415039 4.479670 25.372062 0.000000 0.000000 0.000000 -7.461598 0.803360 -10.442878 -5.819516 0.638019 0.810280 -4.943274 -14.862368 13.859788 0.000000 0.000000 0.000000 11.626565 -1.309399 5.687887 -2.019352 0.949844 0.728874 -2.704311 7.518932 4.074695 18.933731 -8.524810 -20.491397 0.000000 0.000000 0.000000 -18.149871 -31.554600 13.826556 -26.547293 -22.161313 1.509019 -24.604226 -87.074944 25.886887 0.000000 0.000000 0.000000 11.301813 28.306996 13.938779 12.544902 14.617500 -0.608394 69.516053 68.951493 54.948594 0.000000 0.000000 0.000000 
0.010111 0.940668 -0.017951 3.730469 -3.660214 10.747782 -1.616230 -1.424183 -14.452144 -0.031777 0.089243 -2.559436 -2.262681 4.672272 25.613058 0.000000 0.000000 0.000000 -7.338413 0.841982 -11.000529 -5.957287 0.669304 1.027666 -4.726151 -14.569361 14.086965 0.000000 0.000000 0.000000 11.628355 -1.419359 6.425454 -2.117309 1.002674 1.253055 -2.459871 8.078454 3.428005 19.598857 -8.857869 -20.437697 0.000000 0.000000 0.000000 -18.925360 -31.211768 13.644536 -27.194169 -20.897170 1.408879 -82.161958 -85.427909 80.045796 0.000000 0.000000 0.000000 11.480093 29.601198 14.770523 11.550486 15.422158 -0.600182 49.979508 67.839585 38.411306 0.000000 0.000000 0.000000 
0.011206 0.940806 -0.018190 3.502980 -4.675799 10.875192 -1.576106 -1.393921 -14.290061 0.194905 0.083425 -2.971606 -1.744512 5.166310 25.696868 0.000000 0.000000 0.000000 -7.104494 0.891332 -11.382405 -6.253778 0.683213 0.935221 -4.190079 -13.776787 14.094579 0.000000 0.000000 0.000000 11.893387 -1.505576 6.914580 -2.518081 1.219519 2.160957 -2.295131 8.790349 2.400951 19.854182 -9.165757 -19.641022 0.000000 0.000000 0.000000 -19.709626 -30.539224 13.275336 -28.354278 -18.238468 1.073487 -116.017081 -80.724983 109.736909 0.000000 0.000000 0.000000 12.356915 30.965592 15.831067 11.020706 15.839255 -0.583665 32.238044 63.777933 23.459403 0.000000 0.000000 0.000000 
0.012106 0.941204 -0.017852 3.611325 -5.368162 11.133660 -1.596820 -1.392206 -14.330255 -0.087821 0.119759 -3.313172 -1.454979 5.488952 26.026336 0.000000 0.000000 0.000000 -7.246663 0.912792 -11.547043 -6.467786 0.646770 0.398106 -3.823107 -13.265221 14.283036 0.000000 0.000000 0.000000 12.004454 -1.565540 7.265569 -2.893513 1.397721 1.706715 -1.965955 9.608448 2.897641 19.656745 -8.846570 -20.301321 0.000000 0.000000 0.000000 -19.921118 -30.440683 13.149012 -29.348274 -17.601895 1.003774 -129.122646 -78.161298 121.629245 0.000000 0.000000 0.000000 12.797015 31.293421 16.258557 10.983814 15.575797 -0.625144 24.968225 61.265386 17.795242 0.000000 0.000000 0.000000 
0.012631 0.941597 -0.017280 3.593733 -5.648191 10.986430 -1.690600 -1.382849 -14.156351 0.025835 0.107027 -3.232926 -1.324393 5.616086 26.090888 0.000000 0.000000 0.000000 -7.371443 0.907742 -11.454336 -6.308700 0.632566 0.435733 -3.664505 -13.034810 14.323565 0.000000 0.000000 0.000000 12.238834 -1.620631 7.586980 -3.083588 1.485533 1.453307 -1.723656 10.011187 3.211701 19.217480 -8.475950 -20.700178 0.000000 0.000000 0.000000 -20.226764 -29.947766 12.834007 -30.991562 -17.450071 1.072425 -139.254861 -77.445769 132.601818 0.000000 0.000000 0.000000 13.460139 31.015374 16.369931 11.256908 15.315229 -0.648280 21.679025 59.856946 15.322542 0.000000 0.000000 0.000000 
0.012828 0.941496 -0.016609 3.665094 -5.488261 10.700888 -1.730127 -1.389956 -14.155244 -0.080985 0.095714 -2.633631 -1.363084 5.552180 25.905649 0.000000 0.000000 0.000000 -7.569519 0.876646 -11.055282 -6.076529 0.610090 0.426267 -3.750683 -13.138486 14.236965 0.000000 0.000000 0.000000 12.475853 -1.649532 7.689495 -3.274503 1.581107 1.603204 -1.567529 10.114442 3.073494 17.907812 -7.920684 -19.895322 0.000000 0.000000 0.000000 -20.352980 -29.721272 12.640872 -33.029888 -17.998392 1.362126 -144.215167 -77.139569 138.065136 0.000000 0.000000 0.000000 12.715039 30.607499 15.929478 12.536991 14.802338 -0.624566 21.124163 60.565375 15.298170 0.000000 0.000000 0.000000 
0.012470 0.941218 -0.015935 3.956898 -5.082820 10.440517 -1.950754 -1.412027 -14.112768 -0.223737 0.095273 -2.215314 -1.561563 5.347652 25.777614 0.000000 0.000000 0.000000 -7.977560 0.822376 -10.270629 -5.805959 0.527835 -0.210603 -3.963758 -13.427874 14.185456 0.000000 0.000000 0.000000 12.440153 -1.615784 7.513409 -3.306991 1.584320 1.278151 -1.405496 9.665122 3.140781 16.262488 -7.174164 -19.163029 0.000000 0.000000 0.000000 -21.053611 -29.728660 12.840026 -34.679774 -19.563929 1.873711 -146.077062 -79.653943 142.006424 0.000000 0.000000 0.000000 12.685149 29.987377 15.508910 13.839028 13.870034 -0.643318 22.782869 63.034481 17.173253 0.000000 0.000000 0.000000 
0.011563 0.940841 -0.015361 4.000664 -4.610377 10.285426 -1.945161 -1.445276 -14.405307 -0.206053 0.066597 -1.374344 -1.728017 5.152467 25.499525 0.000000 0.000000 0.000000 -8.080842 0.794054 -9.913309 -5.509545 0.501610 -0.230823 -4.224710 -13.786412 14.029367 0.000000 0.000000 0.000000 12.456931 -1.584685 7.278098 -2.862296 1.358460 0.840064 -1.803696 9.470402 3.454565 15.523497 -6.847680 -18.761792 0.000000 0.000000 0.000000 -21.558695 -29.970849 13.021025 -36.445310 -20.137788 2.181288 -140.871619 -80.956381 136.805794 0.000000 0.000000 0.000000 12.530844 29.250912 15.089117 15.234496 13.004628 -0.695369 23.253520 66.073879 18.658599 0.000000 0.000000 0.000000 
0.009992 0.940617 -0.015315 4.393659 -4.333359 10.248330 -2.171056 -1.492151 -14.624242 -0.369312 0.071370 -0.983665 -1.890461 5.017236 25.565317 0.000000 0.000000 0.000000 -8.536347 0.771151 -9.723211 -5.240092 0.466738 -0.363732 -4.427624 -14.063606 13.833135 0.000000 0.000000 0.000000 12.579913 -1.534538 6.826489 -3.131445 1.477786 0.578352 -1.975709 9.011848 3.731380 14.930809 -6.508902 -18.846771 0.000000 0.000000 0.000000 -21.408779 -30.452139 13.405652 -38.842467 -21.289209 2.677367 -131.181839 -81.924504 126.825178 0.000000 0.000000 0.000000 11.425464 28.459161 14.260311 16.914692 12.561848 -0.701237 21.278545 67.896447 18.064320 0.000000 0.000000 0.000000 
0.007531 0.940655 -0.015929 4.759141 -4.478124 9.918594 -2.483458 -1.549593 -14.875103 -0.233649 0.026523 0.018278 -1.816843 5.115479 25.669133 0.000000 0.000000 0.000000 -8.791408 0.758487 -9.606275 -5.223861 0.488441 -0.091800 -4.414047 -13.996979 13.473770 0.000000 0.000000 0.000000 12.415248 -1.535173 7.073781 -2.980666 1.397064 0.022908 -2.436635 8.909945 4.328303 14.473293 -6.118084 -19.468008 0.000000 0.000000 0.000000 -21.555784 -30.908293 13.756589 -40.476932 -22.049745 3.018651 -125.490542 -81.584865 120.377523 0.000000 0.000000 0.000000 10.451220 28.787682 14.109189 17.828173 12.422972 -0.708005 12.248965 68.813453 12.194540 0.000000 0.000000 0.000000 
0.004124 0.940328 -0.017248 5.044212 -4.575841 9.523125 -2.556483 -1.575677 -15.030390 -0.250891 0.002346 0.906223 -1.746987 5.195882 25.700539 0.000000 0.000000 0.000000 -9.072402 0.748126 -9.685246 -4.872289 0.514294 0.616557 -4.463008 -13.990427 12.843357 0.000000 0.000000 0.000000 12.267961 -1.539908 7.346340 -3.048531 1.422640 -0.327421 -2.692026 8.992255 4.746117 14.252818 -5.871370 -20.005439 0.000000 0.000000 0.000000 -21.602993 -31.532390 14.130415 -41.623268 -22.878708 3.381233 -124.781029 -80.338101 118.465122 0.000000 0.000000 0.000000 9.904097 28.975807 14.043371 17.590344 12.915431 -0.672345 3.538310 67.712552 6.143940 0.000000 0.000000 0.000000 
